<?xml version="1.0" standalone="no"?>
<!DOCTYPE svg PUBLIC "-//W3C//DTD SVG 20010904//EN"
 "http://www.w3.org/TR/2001/REC-SVG-20010904/DTD/svg10.dtd">
<svg version="1.0" xmlns="http://www.w3.org/2000/svg"
 width="370.000000pt" height="366.000000pt" viewBox="0 0 370.000000 366.000000"
 preserveAspectRatio="xMidYMid meet">
<metadata>
Created by potrace 1.16, written by Peter Selinger 2001-2019
</metadata>
<g transform="translate(0.000000,366.000000) scale(0.100000,-0.100000)"
fill="#000000" stroke="none">
<path d="M1655 3124 c-301 -50 -579 -232 -751 -490 -103 -156 -159 -303 -189
-499 -34 -230 -1 -433 106 -650 93 -187 231 -345 403 -460 550 -366 1301 -189
1637 386 57 98 96 196 126 319 59 236 22 545 -92 770 -41 81 -141 224 -205
293 -157 170 -390 294 -623 332 -112 18 -303 18 -412 -1z m365 -119 c279 -42
526 -196 679 -423 285 -423 245 -948 -99 -1305 -137 -143 -294 -236 -488 -289
-103 -29 -381 -32 -484 -5 -411 103 -706 415 -784 824 -23 123 -15 303 20 438
59 229 222 465 409 593 211 146 486 207 747 167z"/>
<path d="M1594 2834 c3 -9 6 -78 6 -155 l0 -139 250 0 250 0 0 155 0 155 -256
0 c-229 0 -256 -2 -250 -16z"/>
<path d="M1522 2478 c-15 -15 -16 -452 -1 -518 12 -52 49 -104 87 -124 20 -10
79 -14 217 -16 245 -4 228 -6 276 37 74 67 79 90 79 367 0 175 -3 245 -12 254
-17 17 -629 17 -646 0z m363 -92 c13 -19 14 -29 5 -45 -6 -12 -15 -21 -21 -21
-6 0 -8 -41 -7 -105 2 -58 5 -105 9 -105 3 0 20 15 38 33 29 31 31 36 20 60
-10 23 -9 30 6 47 23 25 57 26 80 0 24 -26 13 -68 -20 -76 -14 -3 -25 -11 -25
-18 0 -6 -25 -31 -55 -56 -44 -37 -54 -51 -54 -77 -1 -18 3 -33 9 -33 19 0 33
-41 21 -66 -16 -35 -77 -34 -93 1 -10 22 -8 29 13 51 l24 26 -22 16 c-12 10
-43 32 -68 51 -38 28 -45 38 -45 68 0 24 -7 40 -22 53 -19 15 -21 22 -13 46 9
24 16 29 45 29 29 0 36 -5 44 -28 7 -20 7 -34 -2 -47 -22 -36 -14 -65 27 -98
22 -18 43 -32 46 -32 3 0 5 56 4 124 -1 109 -4 127 -20 142 -21 19 -24 36 -9
65 16 28 65 25 85 -5z"/>
<path d="M2375 2423 c-20 -4 -20 -10 -17 -383 4 -368 3 -380 -18 -427 -37 -84
-69 -121 -133 -153 -71 -35 -132 -39 -194 -11 -51 24 -98 86 -107 141 l-6 40
-56 0 -57 0 6 -35 c14 -86 94 -195 173 -235 41 -21 63 -25 134 -25 76 0 93 4
152 33 77 38 134 97 175 181 l28 56 3 413 3 412 -33 -1 c-18 -1 -42 -4 -53 -6z"/>
<path d="M1682 1722 l3 -47 153 -3 c178 -3 195 2 190 56 l-3 37 -173 2 -173 2
3 -47z"/>
</g>
</svg>
