<svg xmlns="http://www.w3.org/2000/svg" width="370" height="366" viewBox="0 0 370 366" version="1.1"><path d="M 165.462 53.555 C 135.383 58.613, 107.605 76.767, 90.398 102.614 C 80.054 118.152, 74.461 132.929, 71.516 152.500 C 68.054 175.508, 71.357 195.771, 82.110 217.500 C 112.884 279.689, 188.577 301.320, 247.508 264.766 C 273.099 248.892, 291.094 223.688, 298.746 193 C 304.623 169.431, 300.901 138.475, 289.488 116 C 285.362 107.873, 275.406 93.625, 269.026 86.717 C 253.338 69.729, 229.968 57.274, 206.697 53.500 C 195.548 51.691, 176.392 51.717, 165.462 53.555 M 169.235 65.497 C 153.415 68.365, 136.233 75.440, 125.436 83.533 C 83.580 114.904, 70.752 173.258, 96.007 217.398 C 110.741 243.149, 133.561 260.357, 162.763 267.737 C 173.122 270.355, 200.853 270.064, 211.175 267.228 C 230.650 261.879, 246.307 252.623, 260.044 238.339 C 279.964 217.626, 289.889 192.032, 288.678 164.500 C 287.034 127.138, 266.826 93.905, 235 76.223 C 216.975 66.209, 189.778 61.774, 169.235 65.497 M 159.393 82.582 C 159.727 83.452, 160 90.427, 160 98.082 L 160 112 185 112 L 210 112 210 96.500 L 210 81 184.393 81 C 161.454 81, 158.849 81.165, 159.393 82.582 M 169.698 93.636 C 169.314 94.019, 169 96.308, 169 98.721 C 169 103.110, 169 103.110, 173.750 102.805 C 178.500 102.500, 178.500 102.500, 178.807 98.250 C 179.105 94.133, 179.022 94, 176.139 94 C 174.503 94, 172.541 93.761, 171.780 93.469 C 171.018 93.177, 170.082 93.252, 169.698 93.636 M 191.714 93.620 C 191.321 94.012, 191 96.283, 191 98.667 C 191 103, 191 103, 196.055 103 C 201.110 103, 201.110 103, 200.805 98.250 C 200.500 93.500, 200.500 93.500, 196.464 93.203 C 194.244 93.040, 192.106 93.227, 191.714 93.620 M 152.200 118.200 C 150.671 119.729, 150.570 163.423, 152.081 169.980 C 153.281 175.188, 156.953 180.412, 160.802 182.387 C 162.760 183.391, 168.714 183.842, 182.500 184.031 C 206.995 184.366, 205.337 184.592, 210.153 180.250 C 217.592 173.543, 217.953 171.867, 217.978 143.950 C 217.994 126.163, 217.669 119.069, 216.800 118.200 C 215.084 116.484, 153.916 116.484, 152.200 118.200 M 237.500 123.672 C 235.535 124.066, 235.506 124.738, 235.833 161.956 C 236.156 198.802, 236.107 199.971, 234.036 204.669 C 230.300 213.145, 227.146 216.771, 220.715 219.985 C 213.580 223.550, 207.541 223.883, 201.312 221.055 C 196.229 218.747, 191.503 212.549, 190.621 207.034 C 189.976 203, 189.976 203, 184.357 203 C 178.738 203, 178.738 203, 179.310 206.522 C 180.698 215.074, 188.738 225.982, 196.621 230.009 C 200.692 232.087, 202.912 232.500, 210.021 232.500 C 217.633 232.500, 219.254 232.149, 225.218 229.213 C 232.895 225.434, 238.602 219.541, 242.737 211.124 C 245.500 205.500, 245.500 205.500, 245.792 164.250 C 246.083 123, 246.083 123, 242.792 123.136 C 240.981 123.211, 238.600 123.452, 237.500 123.672 M 180.035 126.934 C 178.511 129.781, 178.760 131.473, 181 133.500 C 182.794 135.124, 183 136.580, 183 147.655 C 183 154.445, 182.749 160, 182.441 160 C 182.134 160, 180.109 158.575, 177.941 156.833 C 173.786 153.493, 172.981 150.605, 175.210 147.035 C 176.067 145.662, 176.133 144.281, 175.436 142.299 C 174.615 139.964, 173.879 139.500, 171 139.500 C 168.105 139.500, 167.386 139.960, 166.544 142.355 C 165.687 144.791, 165.867 145.474, 167.770 147.015 C 169.302 148.255, 170 149.908, 170 152.293 C 170 155.255, 170.670 156.263, 174.547 159.133 C 184.596 166.574, 183.826 165.482, 181.085 168.405 C 179.001 170.627, 178.827 171.325, 179.814 173.490 C 181.423 177.023, 187.536 177.113, 189.124 173.626 C 190.264 171.125, 188.919 167, 186.965 167 C 186.434 167, 186.027 165.537, 186.060 163.750 C 186.109 161.071, 187.070 159.710, 191.532 156 C 194.509 153.525, 196.957 150.986, 196.973 150.358 C 196.988 149.731, 198.118 148.936, 199.485 148.593 C 202.801 147.761, 203.873 143.623, 201.464 140.960 C 199.183 138.440, 195.800 138.459, 193.496 141.004 C 191.959 142.703, 191.866 143.411, 192.889 145.657 C 193.987 148.065, 193.802 148.609, 190.852 151.653 C 189.068 153.494, 187.358 154.999, 187.054 154.998 C 186.749 154.998, 186.378 150.273, 186.228 144.498 C 186.062 138.077, 186.340 134, 186.943 134 C 187.486 134, 188.427 133.070, 189.036 131.933 C 189.896 130.325, 189.788 129.325, 188.548 127.433 C 186.539 124.366, 181.566 124.075, 180.035 126.934 M 168.198 193.814 L 168.500 198.500 183.767 198.776 C 201.633 199.099, 203.259 198.622, 202.806 193.185 C 202.500 189.500, 202.500 189.500, 185.198 189.314 L 167.896 189.128 168.198 193.814" stroke="none" fill="#1c2e3b" fill-rule="evenodd"/></svg>